<mxfile host="app.diagrams.net" agent="Mozilla/5.0 (Macintosh; Intel Mac OS X 10_15_7) AppleWebKit/537.36 (KHTML, like Gecko) Chrome/129.0.0.0 Safari/537.36" version="24.8.0">
  <diagram name="Page-1" id="sp3Dmw4lJcXoA3HooRZM">
    <mxGraphModel dx="1041" dy="973" grid="1" gridSize="10" guides="1" tooltips="1" connect="1" arrows="1" fold="1" page="1" pageScale="1" pageWidth="1654" pageHeight="2336" math="0" shadow="0">
      <root>
        <mxCell id="0" />
        <mxCell id="1" parent="0" />
        <mxCell id="R22fCnHGFZq9iobNYwOA-1" value="&lt;font face=&quot;Verdana&quot; style=&quot;font-size: 36px;&quot;&gt;2&lt;/font&gt;" style="ellipse;whiteSpace=wrap;html=1;aspect=fixed;fillColor=#f5f5f5;strokeColor=#666666;fontColor=#333333;" vertex="1" parent="1">
          <mxGeometry x="640" y="280" width="80" height="80" as="geometry" />
        </mxCell>
        <mxCell id="R22fCnHGFZq9iobNYwOA-31" style="rounded=0;orthogonalLoop=1;jettySize=auto;html=1;exitX=0;exitY=1;exitDx=0;exitDy=0;entryX=1;entryY=0;entryDx=0;entryDy=0;endArrow=none;endFill=0;" edge="1" parent="1" source="R22fCnHGFZq9iobNYwOA-2" target="R22fCnHGFZq9iobNYwOA-22">
          <mxGeometry relative="1" as="geometry" />
        </mxCell>
        <mxCell id="R22fCnHGFZq9iobNYwOA-2" value="&lt;font face=&quot;Verdana&quot; style=&quot;font-size: 36px;&quot;&gt;4&lt;/font&gt;" style="ellipse;whiteSpace=wrap;html=1;aspect=fixed;fillColor=#f5f5f5;strokeColor=#666666;fontColor=#333333;" vertex="1" parent="1">
          <mxGeometry x="400" y="400" width="80" height="80" as="geometry" />
        </mxCell>
        <mxCell id="R22fCnHGFZq9iobNYwOA-28" style="rounded=0;orthogonalLoop=1;jettySize=auto;html=1;exitX=1;exitY=1;exitDx=0;exitDy=0;entryX=0;entryY=0;entryDx=0;entryDy=0;endArrow=none;endFill=0;" edge="1" parent="1" source="R22fCnHGFZq9iobNYwOA-4" target="R22fCnHGFZq9iobNYwOA-18">
          <mxGeometry relative="1" as="geometry" />
        </mxCell>
        <mxCell id="R22fCnHGFZq9iobNYwOA-4" value="&lt;font face=&quot;Verdana&quot; style=&quot;font-size: 36px;&quot;&gt;7&lt;/font&gt;" style="ellipse;whiteSpace=wrap;html=1;aspect=fixed;fillColor=#f5f5f5;strokeColor=#666666;fontColor=#333333;" vertex="1" parent="1">
          <mxGeometry x="900" y="400" width="80" height="80" as="geometry" />
        </mxCell>
        <mxCell id="R22fCnHGFZq9iobNYwOA-5" value="" style="endArrow=none;html=1;rounded=0;entryX=1;entryY=1;entryDx=0;entryDy=0;fillColor=#f5f5f5;strokeColor=#666666;" edge="1" parent="1" source="R22fCnHGFZq9iobNYwOA-4" target="R22fCnHGFZq9iobNYwOA-1">
          <mxGeometry width="50" height="50" relative="1" as="geometry">
            <mxPoint x="578" y="432" as="sourcePoint" />
            <mxPoint x="642" y="368" as="targetPoint" />
          </mxGeometry>
        </mxCell>
        <mxCell id="R22fCnHGFZq9iobNYwOA-35" style="rounded=0;orthogonalLoop=1;jettySize=auto;html=1;exitX=0;exitY=0;exitDx=0;exitDy=0;entryX=1;entryY=1;entryDx=0;entryDy=0;endArrow=none;endFill=0;" edge="1" parent="1" source="R22fCnHGFZq9iobNYwOA-7" target="R22fCnHGFZq9iobNYwOA-2">
          <mxGeometry relative="1" as="geometry" />
        </mxCell>
        <mxCell id="R22fCnHGFZq9iobNYwOA-7" value="&lt;font face=&quot;Verdana&quot; style=&quot;font-size: 36px;&quot;&gt;19&lt;/font&gt;" style="ellipse;whiteSpace=wrap;html=1;aspect=fixed;fillColor=#f5f5f5;strokeColor=#666666;fontColor=#333333;" vertex="1" parent="1">
          <mxGeometry x="560" y="520" width="80" height="80" as="geometry" />
        </mxCell>
        <mxCell id="R22fCnHGFZq9iobNYwOA-27" style="rounded=0;orthogonalLoop=1;jettySize=auto;html=1;exitX=1;exitY=0;exitDx=0;exitDy=0;entryX=0;entryY=1;entryDx=0;entryDy=0;strokeColor=default;endArrow=none;endFill=0;" edge="1" parent="1" source="R22fCnHGFZq9iobNYwOA-8" target="R22fCnHGFZq9iobNYwOA-4">
          <mxGeometry relative="1" as="geometry" />
        </mxCell>
        <mxCell id="R22fCnHGFZq9iobNYwOA-8" value="&lt;font face=&quot;Verdana&quot; style=&quot;font-size: 36px;&quot;&gt;15&lt;/font&gt;" style="ellipse;whiteSpace=wrap;html=1;aspect=fixed;fillColor=#f5f5f5;strokeColor=#666666;fontColor=#333333;" vertex="1" parent="1">
          <mxGeometry x="800" y="520" width="80" height="80" as="geometry" />
        </mxCell>
        <mxCell id="R22fCnHGFZq9iobNYwOA-12" value="" style="endArrow=none;html=1;rounded=0;exitX=1;exitY=0;exitDx=0;exitDy=0;entryX=0;entryY=1;entryDx=0;entryDy=0;" edge="1" parent="1" source="R22fCnHGFZq9iobNYwOA-2" target="R22fCnHGFZq9iobNYwOA-1">
          <mxGeometry width="50" height="50" relative="1" as="geometry">
            <mxPoint x="330" y="691.72" as="sourcePoint" />
            <mxPoint x="511.7157287525381" y="590.0042712474619" as="targetPoint" />
          </mxGeometry>
        </mxCell>
        <mxCell id="R22fCnHGFZq9iobNYwOA-18" value="&lt;font face=&quot;Verdana&quot; style=&quot;font-size: 36px;&quot;&gt;13&lt;/font&gt;" style="ellipse;whiteSpace=wrap;html=1;aspect=fixed;fillColor=#f5f5f5;strokeColor=#666666;fontColor=#333333;" vertex="1" parent="1">
          <mxGeometry x="1000" y="520" width="80" height="80" as="geometry" />
        </mxCell>
        <mxCell id="R22fCnHGFZq9iobNYwOA-34" style="rounded=0;orthogonalLoop=1;jettySize=auto;html=1;exitX=1;exitY=0;exitDx=0;exitDy=0;entryX=0;entryY=1;entryDx=0;entryDy=0;endArrow=none;endFill=0;" edge="1" parent="1" source="R22fCnHGFZq9iobNYwOA-19" target="R22fCnHGFZq9iobNYwOA-7">
          <mxGeometry relative="1" as="geometry" />
        </mxCell>
        <mxCell id="R22fCnHGFZq9iobNYwOA-19" value="&lt;font face=&quot;Verdana&quot; style=&quot;font-size: 36px;&quot;&gt;41&lt;/font&gt;" style="ellipse;whiteSpace=wrap;html=1;aspect=fixed;fillColor=#f5f5f5;strokeColor=#666666;fontColor=#333333;" vertex="1" parent="1">
          <mxGeometry x="480" y="600" width="80" height="80" as="geometry" />
        </mxCell>
        <mxCell id="R22fCnHGFZq9iobNYwOA-32" style="rounded=0;orthogonalLoop=1;jettySize=auto;html=1;exitX=0;exitY=1;exitDx=0;exitDy=0;entryX=1;entryY=0;entryDx=0;entryDy=0;endArrow=none;endFill=0;" edge="1" parent="1" source="R22fCnHGFZq9iobNYwOA-22" target="R22fCnHGFZq9iobNYwOA-23">
          <mxGeometry relative="1" as="geometry" />
        </mxCell>
        <mxCell id="R22fCnHGFZq9iobNYwOA-33" style="rounded=0;orthogonalLoop=1;jettySize=auto;html=1;exitX=1;exitY=1;exitDx=0;exitDy=0;entryX=0;entryY=0;entryDx=0;entryDy=0;endArrow=none;endFill=0;" edge="1" parent="1" source="R22fCnHGFZq9iobNYwOA-22" target="R22fCnHGFZq9iobNYwOA-24">
          <mxGeometry relative="1" as="geometry" />
        </mxCell>
        <mxCell id="R22fCnHGFZq9iobNYwOA-22" value="&lt;font face=&quot;Verdana&quot; style=&quot;font-size: 36px;&quot;&gt;8&lt;/font&gt;" style="ellipse;whiteSpace=wrap;html=1;aspect=fixed;fillColor=#f5f5f5;strokeColor=#666666;fontColor=#333333;" vertex="1" parent="1">
          <mxGeometry x="240" y="520" width="80" height="80" as="geometry" />
        </mxCell>
        <mxCell id="R22fCnHGFZq9iobNYwOA-23" value="&lt;font face=&quot;Verdana&quot; style=&quot;font-size: 36px;&quot;&gt;9&lt;/font&gt;" style="ellipse;whiteSpace=wrap;html=1;aspect=fixed;fillColor=#f5f5f5;strokeColor=#666666;fontColor=#333333;" vertex="1" parent="1">
          <mxGeometry x="160" y="600" width="80" height="80" as="geometry" />
        </mxCell>
        <mxCell id="R22fCnHGFZq9iobNYwOA-24" value="&lt;font face=&quot;Verdana&quot; style=&quot;font-size: 36px;&quot;&gt;11&lt;/font&gt;" style="ellipse;whiteSpace=wrap;html=1;aspect=fixed;fillColor=#f5f5f5;strokeColor=#666666;fontColor=#333333;" vertex="1" parent="1">
          <mxGeometry x="320" y="600" width="80" height="80" as="geometry" />
        </mxCell>
        <mxCell id="R22fCnHGFZq9iobNYwOA-36" value="&lt;font style=&quot;font-size: 25px;&quot;&gt;1&lt;/font&gt;" style="text;strokeColor=none;align=center;fillColor=none;html=1;verticalAlign=middle;whiteSpace=wrap;rounded=0;fontSize=25;" vertex="1" parent="1">
          <mxGeometry x="665" y="240" width="30" height="30" as="geometry" />
        </mxCell>
        <mxCell id="R22fCnHGFZq9iobNYwOA-37" value="&lt;font style=&quot;font-size: 25px;&quot;&gt;2&lt;/font&gt;" style="text;strokeColor=none;align=center;fillColor=none;html=1;verticalAlign=middle;whiteSpace=wrap;rounded=0;fontSize=25;" vertex="1" parent="1">
          <mxGeometry x="425" y="360" width="30" height="30" as="geometry" />
        </mxCell>
        <mxCell id="R22fCnHGFZq9iobNYwOA-38" value="&lt;font style=&quot;font-size: 25px;&quot;&gt;3&lt;/font&gt;" style="text;strokeColor=none;align=center;fillColor=none;html=1;verticalAlign=middle;whiteSpace=wrap;rounded=0;fontSize=25;" vertex="1" parent="1">
          <mxGeometry x="925" y="360" width="30" height="30" as="geometry" />
        </mxCell>
        <mxCell id="R22fCnHGFZq9iobNYwOA-39" value="&lt;font style=&quot;font-size: 25px;&quot;&gt;4&lt;/font&gt;" style="text;strokeColor=none;align=center;fillColor=none;html=1;verticalAlign=middle;whiteSpace=wrap;rounded=0;fontSize=25;" vertex="1" parent="1">
          <mxGeometry x="265" y="480" width="30" height="30" as="geometry" />
        </mxCell>
        <mxCell id="R22fCnHGFZq9iobNYwOA-40" value="&lt;font style=&quot;font-size: 25px;&quot;&gt;5&lt;/font&gt;" style="text;strokeColor=none;align=center;fillColor=none;html=1;verticalAlign=middle;whiteSpace=wrap;rounded=0;fontSize=25;" vertex="1" parent="1">
          <mxGeometry x="585" y="480" width="30" height="30" as="geometry" />
        </mxCell>
        <mxCell id="R22fCnHGFZq9iobNYwOA-41" value="&lt;font style=&quot;font-size: 25px;&quot;&gt;6&lt;/font&gt;" style="text;strokeColor=none;align=center;fillColor=none;html=1;verticalAlign=middle;whiteSpace=wrap;rounded=0;fontSize=25;" vertex="1" parent="1">
          <mxGeometry x="820" y="480" width="30" height="30" as="geometry" />
        </mxCell>
        <mxCell id="R22fCnHGFZq9iobNYwOA-42" value="&lt;font style=&quot;font-size: 25px;&quot;&gt;7&lt;/font&gt;" style="text;strokeColor=none;align=center;fillColor=none;html=1;verticalAlign=middle;whiteSpace=wrap;rounded=0;fontSize=25;" vertex="1" parent="1">
          <mxGeometry x="1025" y="480" width="30" height="30" as="geometry" />
        </mxCell>
        <mxCell id="R22fCnHGFZq9iobNYwOA-43" value="&lt;font style=&quot;font-size: 25px;&quot;&gt;8&lt;/font&gt;" style="text;strokeColor=none;align=center;fillColor=none;html=1;verticalAlign=middle;whiteSpace=wrap;rounded=0;fontSize=25;" vertex="1" parent="1">
          <mxGeometry x="185" y="560" width="30" height="30" as="geometry" />
        </mxCell>
        <mxCell id="R22fCnHGFZq9iobNYwOA-44" value="&lt;font style=&quot;font-size: 25px;&quot;&gt;9&lt;/font&gt;" style="text;strokeColor=none;align=center;fillColor=none;html=1;verticalAlign=middle;whiteSpace=wrap;rounded=0;fontSize=25;" vertex="1" parent="1">
          <mxGeometry x="345" y="560" width="30" height="30" as="geometry" />
        </mxCell>
        <mxCell id="R22fCnHGFZq9iobNYwOA-45" value="&lt;font style=&quot;font-size: 25px;&quot;&gt;10&lt;/font&gt;" style="text;strokeColor=none;align=center;fillColor=none;html=1;verticalAlign=middle;whiteSpace=wrap;rounded=0;fontSize=25;" vertex="1" parent="1">
          <mxGeometry x="505" y="560" width="30" height="30" as="geometry" />
        </mxCell>
        <mxCell id="R22fCnHGFZq9iobNYwOA-63" value="" style="group" vertex="1" connectable="0" parent="1">
          <mxGeometry x="280" y="1000" width="80" height="130" as="geometry" />
        </mxCell>
        <mxCell id="R22fCnHGFZq9iobNYwOA-53" value="" style="group" vertex="1" connectable="0" parent="R22fCnHGFZq9iobNYwOA-63">
          <mxGeometry width="80" height="80" as="geometry" />
        </mxCell>
        <mxCell id="R22fCnHGFZq9iobNYwOA-48" value="" style="verticalLabelPosition=bottom;verticalAlign=top;html=1;shape=mxgraph.basic.rect;fillColor2=none;strokeWidth=1;size=20;indent=5;fillColor=#f5f5f5;fontColor=#333333;strokeColor=#666666;" vertex="1" parent="R22fCnHGFZq9iobNYwOA-53">
          <mxGeometry width="80" height="80" as="geometry" />
        </mxCell>
        <mxCell id="R22fCnHGFZq9iobNYwOA-52" value="&lt;font style=&quot;font-size: 55px;&quot;&gt;2&lt;/font&gt;" style="text;strokeColor=none;align=center;fillColor=none;html=1;verticalAlign=middle;whiteSpace=wrap;rounded=0;fontSize=40;" vertex="1" parent="R22fCnHGFZq9iobNYwOA-53">
          <mxGeometry width="80" height="80" as="geometry" />
        </mxCell>
        <mxCell id="R22fCnHGFZq9iobNYwOA-69" value="" style="group" vertex="1" connectable="0" parent="1">
          <mxGeometry x="360" y="1000" width="80" height="130" as="geometry" />
        </mxCell>
        <mxCell id="R22fCnHGFZq9iobNYwOA-70" value="" style="group" vertex="1" connectable="0" parent="R22fCnHGFZq9iobNYwOA-69">
          <mxGeometry width="80" height="80" as="geometry" />
        </mxCell>
        <mxCell id="R22fCnHGFZq9iobNYwOA-71" value="" style="verticalLabelPosition=bottom;verticalAlign=top;html=1;shape=mxgraph.basic.rect;fillColor2=none;strokeWidth=1;size=20;indent=5;fillColor=#f5f5f5;fontColor=#333333;strokeColor=#666666;" vertex="1" parent="R22fCnHGFZq9iobNYwOA-70">
          <mxGeometry width="80" height="80" as="geometry" />
        </mxCell>
        <mxCell id="R22fCnHGFZq9iobNYwOA-72" value="&lt;font style=&quot;font-size: 55px;&quot;&gt;4&lt;/font&gt;" style="text;strokeColor=none;align=center;fillColor=none;html=1;verticalAlign=middle;whiteSpace=wrap;rounded=0;fontSize=40;" vertex="1" parent="R22fCnHGFZq9iobNYwOA-70">
          <mxGeometry width="80" height="80" as="geometry" />
        </mxCell>
        <mxCell id="R22fCnHGFZq9iobNYwOA-74" value="" style="group" vertex="1" connectable="0" parent="1">
          <mxGeometry x="440" y="1000" width="80" height="130" as="geometry" />
        </mxCell>
        <mxCell id="R22fCnHGFZq9iobNYwOA-75" value="" style="group" vertex="1" connectable="0" parent="R22fCnHGFZq9iobNYwOA-74">
          <mxGeometry width="80" height="80" as="geometry" />
        </mxCell>
        <mxCell id="R22fCnHGFZq9iobNYwOA-76" value="" style="verticalLabelPosition=bottom;verticalAlign=top;html=1;shape=mxgraph.basic.rect;fillColor2=none;strokeWidth=1;size=20;indent=5;fillColor=#f5f5f5;fontColor=#333333;strokeColor=#666666;" vertex="1" parent="R22fCnHGFZq9iobNYwOA-75">
          <mxGeometry width="80" height="80" as="geometry" />
        </mxCell>
        <mxCell id="R22fCnHGFZq9iobNYwOA-77" value="&lt;font style=&quot;font-size: 55px;&quot;&gt;7&lt;/font&gt;" style="text;strokeColor=none;align=center;fillColor=none;html=1;verticalAlign=middle;whiteSpace=wrap;rounded=0;fontSize=40;" vertex="1" parent="R22fCnHGFZq9iobNYwOA-75">
          <mxGeometry width="80" height="80" as="geometry" />
        </mxCell>
        <mxCell id="R22fCnHGFZq9iobNYwOA-79" value="" style="group" vertex="1" connectable="0" parent="1">
          <mxGeometry x="520" y="1000" width="80" height="130" as="geometry" />
        </mxCell>
        <mxCell id="R22fCnHGFZq9iobNYwOA-80" value="" style="group" vertex="1" connectable="0" parent="R22fCnHGFZq9iobNYwOA-79">
          <mxGeometry width="80" height="80" as="geometry" />
        </mxCell>
        <mxCell id="R22fCnHGFZq9iobNYwOA-81" value="" style="verticalLabelPosition=bottom;verticalAlign=top;html=1;shape=mxgraph.basic.rect;fillColor2=none;strokeWidth=1;size=20;indent=5;fillColor=#f5f5f5;fontColor=#333333;strokeColor=#666666;" vertex="1" parent="R22fCnHGFZq9iobNYwOA-80">
          <mxGeometry width="80" height="80" as="geometry" />
        </mxCell>
        <mxCell id="R22fCnHGFZq9iobNYwOA-82" value="&lt;font style=&quot;font-size: 55px;&quot;&gt;8&lt;/font&gt;" style="text;strokeColor=none;align=center;fillColor=none;html=1;verticalAlign=middle;whiteSpace=wrap;rounded=0;fontSize=40;" vertex="1" parent="R22fCnHGFZq9iobNYwOA-80">
          <mxGeometry width="80" height="80" as="geometry" />
        </mxCell>
        <mxCell id="R22fCnHGFZq9iobNYwOA-84" value="" style="group" vertex="1" connectable="0" parent="1">
          <mxGeometry x="600" y="1000" width="80" height="130" as="geometry" />
        </mxCell>
        <mxCell id="R22fCnHGFZq9iobNYwOA-85" value="" style="group" vertex="1" connectable="0" parent="R22fCnHGFZq9iobNYwOA-84">
          <mxGeometry width="80" height="80" as="geometry" />
        </mxCell>
        <mxCell id="R22fCnHGFZq9iobNYwOA-86" value="" style="verticalLabelPosition=bottom;verticalAlign=top;html=1;shape=mxgraph.basic.rect;fillColor2=none;strokeWidth=1;size=20;indent=5;fillColor=#f5f5f5;fontColor=#333333;strokeColor=#666666;" vertex="1" parent="R22fCnHGFZq9iobNYwOA-85">
          <mxGeometry width="80" height="80" as="geometry" />
        </mxCell>
        <mxCell id="R22fCnHGFZq9iobNYwOA-87" value="&lt;font style=&quot;font-size: 55px;&quot;&gt;19&lt;/font&gt;" style="text;strokeColor=none;align=center;fillColor=none;html=1;verticalAlign=middle;whiteSpace=wrap;rounded=0;fontSize=40;" vertex="1" parent="R22fCnHGFZq9iobNYwOA-85">
          <mxGeometry width="80" height="80" as="geometry" />
        </mxCell>
        <mxCell id="R22fCnHGFZq9iobNYwOA-89" value="" style="group" vertex="1" connectable="0" parent="1">
          <mxGeometry x="680" y="1000" width="80" height="130" as="geometry" />
        </mxCell>
        <mxCell id="R22fCnHGFZq9iobNYwOA-90" value="" style="group" vertex="1" connectable="0" parent="R22fCnHGFZq9iobNYwOA-89">
          <mxGeometry width="80" height="80" as="geometry" />
        </mxCell>
        <mxCell id="R22fCnHGFZq9iobNYwOA-91" value="" style="verticalLabelPosition=bottom;verticalAlign=top;html=1;shape=mxgraph.basic.rect;fillColor2=none;strokeWidth=1;size=20;indent=5;fillColor=#f5f5f5;fontColor=#333333;strokeColor=#666666;" vertex="1" parent="R22fCnHGFZq9iobNYwOA-90">
          <mxGeometry width="80" height="80" as="geometry" />
        </mxCell>
        <mxCell id="R22fCnHGFZq9iobNYwOA-92" value="&lt;font style=&quot;font-size: 55px;&quot;&gt;15&lt;/font&gt;" style="text;strokeColor=none;align=center;fillColor=none;html=1;verticalAlign=middle;whiteSpace=wrap;rounded=0;fontSize=40;" vertex="1" parent="R22fCnHGFZq9iobNYwOA-90">
          <mxGeometry width="80" height="80" as="geometry" />
        </mxCell>
        <mxCell id="R22fCnHGFZq9iobNYwOA-94" value="" style="group" vertex="1" connectable="0" parent="1">
          <mxGeometry x="760" y="1000" width="80" height="130" as="geometry" />
        </mxCell>
        <mxCell id="R22fCnHGFZq9iobNYwOA-95" value="" style="group" vertex="1" connectable="0" parent="R22fCnHGFZq9iobNYwOA-94">
          <mxGeometry width="80" height="80" as="geometry" />
        </mxCell>
        <mxCell id="R22fCnHGFZq9iobNYwOA-96" value="" style="verticalLabelPosition=bottom;verticalAlign=top;html=1;shape=mxgraph.basic.rect;fillColor2=none;strokeWidth=1;size=20;indent=5;fillColor=#f5f5f5;fontColor=#333333;strokeColor=#666666;" vertex="1" parent="R22fCnHGFZq9iobNYwOA-95">
          <mxGeometry width="80" height="80" as="geometry" />
        </mxCell>
        <mxCell id="R22fCnHGFZq9iobNYwOA-97" value="&lt;font style=&quot;font-size: 55px;&quot;&gt;13&lt;/font&gt;" style="text;strokeColor=none;align=center;fillColor=none;html=1;verticalAlign=middle;whiteSpace=wrap;rounded=0;fontSize=40;" vertex="1" parent="R22fCnHGFZq9iobNYwOA-95">
          <mxGeometry width="80" height="80" as="geometry" />
        </mxCell>
        <mxCell id="R22fCnHGFZq9iobNYwOA-99" value="" style="group" vertex="1" connectable="0" parent="1">
          <mxGeometry x="840" y="1000" width="80" height="130" as="geometry" />
        </mxCell>
        <mxCell id="R22fCnHGFZq9iobNYwOA-100" value="" style="group" vertex="1" connectable="0" parent="R22fCnHGFZq9iobNYwOA-99">
          <mxGeometry width="80" height="80" as="geometry" />
        </mxCell>
        <mxCell id="R22fCnHGFZq9iobNYwOA-101" value="" style="verticalLabelPosition=bottom;verticalAlign=top;html=1;shape=mxgraph.basic.rect;fillColor2=none;strokeWidth=1;size=20;indent=5;fillColor=#f5f5f5;fontColor=#333333;strokeColor=#666666;" vertex="1" parent="R22fCnHGFZq9iobNYwOA-100">
          <mxGeometry width="80" height="80" as="geometry" />
        </mxCell>
        <mxCell id="R22fCnHGFZq9iobNYwOA-102" value="&lt;font style=&quot;font-size: 55px;&quot;&gt;9&lt;/font&gt;" style="text;strokeColor=none;align=center;fillColor=none;html=1;verticalAlign=middle;whiteSpace=wrap;rounded=0;fontSize=40;" vertex="1" parent="R22fCnHGFZq9iobNYwOA-100">
          <mxGeometry width="80" height="80" as="geometry" />
        </mxCell>
        <mxCell id="R22fCnHGFZq9iobNYwOA-104" value="" style="group" vertex="1" connectable="0" parent="1">
          <mxGeometry x="920" y="1000" width="80" height="130" as="geometry" />
        </mxCell>
        <mxCell id="R22fCnHGFZq9iobNYwOA-105" value="" style="group" vertex="1" connectable="0" parent="R22fCnHGFZq9iobNYwOA-104">
          <mxGeometry width="80" height="80" as="geometry" />
        </mxCell>
        <mxCell id="R22fCnHGFZq9iobNYwOA-106" value="" style="verticalLabelPosition=bottom;verticalAlign=top;html=1;shape=mxgraph.basic.rect;fillColor2=none;strokeWidth=1;size=20;indent=5;fillColor=#f5f5f5;fontColor=#333333;strokeColor=#666666;" vertex="1" parent="R22fCnHGFZq9iobNYwOA-105">
          <mxGeometry width="80" height="80" as="geometry" />
        </mxCell>
        <mxCell id="R22fCnHGFZq9iobNYwOA-107" value="&lt;font style=&quot;font-size: 55px;&quot;&gt;11&lt;/font&gt;" style="text;strokeColor=none;align=center;fillColor=none;html=1;verticalAlign=middle;whiteSpace=wrap;rounded=0;fontSize=40;" vertex="1" parent="R22fCnHGFZq9iobNYwOA-105">
          <mxGeometry width="80" height="80" as="geometry" />
        </mxCell>
        <mxCell id="R22fCnHGFZq9iobNYwOA-109" value="" style="group" vertex="1" connectable="0" parent="1">
          <mxGeometry x="1000" y="1000" width="80" height="130" as="geometry" />
        </mxCell>
        <mxCell id="R22fCnHGFZq9iobNYwOA-110" value="" style="group" vertex="1" connectable="0" parent="R22fCnHGFZq9iobNYwOA-109">
          <mxGeometry width="80" height="80" as="geometry" />
        </mxCell>
        <mxCell id="R22fCnHGFZq9iobNYwOA-111" value="" style="verticalLabelPosition=bottom;verticalAlign=top;html=1;shape=mxgraph.basic.rect;fillColor2=none;strokeWidth=1;size=20;indent=5;fillColor=#f5f5f5;fontColor=#333333;strokeColor=#666666;" vertex="1" parent="R22fCnHGFZq9iobNYwOA-110">
          <mxGeometry width="80" height="80" as="geometry" />
        </mxCell>
        <mxCell id="R22fCnHGFZq9iobNYwOA-112" value="&lt;font style=&quot;font-size: 55px;&quot;&gt;41&lt;/font&gt;" style="text;strokeColor=none;align=center;fillColor=none;html=1;verticalAlign=middle;whiteSpace=wrap;rounded=0;fontSize=40;" vertex="1" parent="R22fCnHGFZq9iobNYwOA-110">
          <mxGeometry width="80" height="80" as="geometry" />
        </mxCell>
        <mxCell id="R22fCnHGFZq9iobNYwOA-115" style="edgeStyle=orthogonalEdgeStyle;rounded=1;orthogonalLoop=1;jettySize=auto;html=1;exitX=0.5;exitY=0;exitDx=0;exitDy=0;entryX=0.5;entryY=0;entryDx=0;entryDy=0;curved=0;" edge="1" parent="1" source="R22fCnHGFZq9iobNYwOA-52" target="R22fCnHGFZq9iobNYwOA-72">
          <mxGeometry relative="1" as="geometry" />
        </mxCell>
        <mxCell id="R22fCnHGFZq9iobNYwOA-118" style="edgeStyle=orthogonalEdgeStyle;rounded=1;orthogonalLoop=1;jettySize=auto;html=1;exitX=0.5;exitY=0;exitDx=0;exitDy=0;curved=0;entryX=0.25;entryY=0;entryDx=0;entryDy=0;" edge="1" parent="1" source="R22fCnHGFZq9iobNYwOA-52" target="R22fCnHGFZq9iobNYwOA-77">
          <mxGeometry relative="1" as="geometry">
            <mxPoint x="460" y="1000" as="targetPoint" />
            <Array as="points">
              <mxPoint x="320" y="960" />
              <mxPoint x="460" y="960" />
            </Array>
          </mxGeometry>
        </mxCell>
        <mxCell id="R22fCnHGFZq9iobNYwOA-73" value="&lt;span style=&quot;font-size: 30px;&quot;&gt;2&lt;/span&gt;" style="text;html=1;align=center;verticalAlign=middle;resizable=0;points=[];autosize=1;strokeColor=none;fillColor=none;" vertex="1" parent="1">
          <mxGeometry x="380" y="1118" width="40" height="50" as="geometry" />
        </mxCell>
        <mxCell id="R22fCnHGFZq9iobNYwOA-78" value="&lt;font style=&quot;font-size: 30px;&quot;&gt;3&lt;/font&gt;" style="text;html=1;align=center;verticalAlign=middle;resizable=0;points=[];autosize=1;strokeColor=none;fillColor=none;" vertex="1" parent="1">
          <mxGeometry x="460" y="1118" width="40" height="50" as="geometry" />
        </mxCell>
        <mxCell id="R22fCnHGFZq9iobNYwOA-58" value="&lt;font style=&quot;font-size: 30px;&quot;&gt;1&lt;/font&gt;" style="text;html=1;align=center;verticalAlign=middle;resizable=0;points=[];autosize=1;strokeColor=none;fillColor=none;" vertex="1" parent="1">
          <mxGeometry x="300" y="1118" width="40" height="50" as="geometry" />
        </mxCell>
        <mxCell id="R22fCnHGFZq9iobNYwOA-83" value="&lt;font style=&quot;font-size: 30px;&quot;&gt;4&lt;/font&gt;" style="text;html=1;align=center;verticalAlign=middle;resizable=0;points=[];autosize=1;strokeColor=none;fillColor=none;" vertex="1" parent="1">
          <mxGeometry x="540" y="1118" width="40" height="50" as="geometry" />
        </mxCell>
        <mxCell id="R22fCnHGFZq9iobNYwOA-88" value="&lt;font style=&quot;font-size: 30px;&quot;&gt;5&lt;/font&gt;" style="text;html=1;align=center;verticalAlign=middle;resizable=0;points=[];autosize=1;strokeColor=none;fillColor=none;" vertex="1" parent="1">
          <mxGeometry x="620" y="1118" width="40" height="50" as="geometry" />
        </mxCell>
        <mxCell id="R22fCnHGFZq9iobNYwOA-93" value="&lt;font style=&quot;font-size: 30px;&quot;&gt;6&lt;/font&gt;" style="text;html=1;align=center;verticalAlign=middle;resizable=0;points=[];autosize=1;strokeColor=none;fillColor=none;" vertex="1" parent="1">
          <mxGeometry x="700" y="1118" width="40" height="50" as="geometry" />
        </mxCell>
        <mxCell id="R22fCnHGFZq9iobNYwOA-98" value="&lt;font style=&quot;font-size: 30px;&quot;&gt;7&lt;/font&gt;" style="text;html=1;align=center;verticalAlign=middle;resizable=0;points=[];autosize=1;strokeColor=none;fillColor=none;" vertex="1" parent="1">
          <mxGeometry x="780" y="1118" width="40" height="50" as="geometry" />
        </mxCell>
        <mxCell id="R22fCnHGFZq9iobNYwOA-103" value="&lt;font style=&quot;font-size: 30px;&quot;&gt;8&lt;/font&gt;" style="text;html=1;align=center;verticalAlign=middle;resizable=0;points=[];autosize=1;strokeColor=none;fillColor=none;" vertex="1" parent="1">
          <mxGeometry x="860" y="1118" width="40" height="50" as="geometry" />
        </mxCell>
        <mxCell id="R22fCnHGFZq9iobNYwOA-108" value="&lt;font style=&quot;font-size: 30px;&quot;&gt;9&lt;/font&gt;" style="text;html=1;align=center;verticalAlign=middle;resizable=0;points=[];autosize=1;strokeColor=none;fillColor=none;" vertex="1" parent="1">
          <mxGeometry x="940" y="1118" width="40" height="50" as="geometry" />
        </mxCell>
        <mxCell id="R22fCnHGFZq9iobNYwOA-113" value="&lt;font style=&quot;font-size: 30px;&quot;&gt;10&lt;/font&gt;" style="text;html=1;align=center;verticalAlign=middle;resizable=0;points=[];autosize=1;strokeColor=none;fillColor=none;" vertex="1" parent="1">
          <mxGeometry x="1010" y="1118" width="60" height="50" as="geometry" />
        </mxCell>
        <mxCell id="R22fCnHGFZq9iobNYwOA-122" style="edgeStyle=orthogonalEdgeStyle;rounded=1;orthogonalLoop=1;jettySize=auto;html=1;exitX=0.5;exitY=1;exitDx=0;exitDy=0;entryX=0.5;entryY=1;entryDx=0;entryDy=0;curved=0;" edge="1" parent="1" source="R22fCnHGFZq9iobNYwOA-72" target="R22fCnHGFZq9iobNYwOA-82">
          <mxGeometry relative="1" as="geometry" />
        </mxCell>
        <mxCell id="R22fCnHGFZq9iobNYwOA-123" style="edgeStyle=orthogonalEdgeStyle;rounded=1;orthogonalLoop=1;jettySize=auto;html=1;exitX=0.5;exitY=1;exitDx=0;exitDy=0;entryX=0.5;entryY=1;entryDx=0;entryDy=0;curved=0;" edge="1" parent="1" source="R22fCnHGFZq9iobNYwOA-72" target="R22fCnHGFZq9iobNYwOA-87">
          <mxGeometry relative="1" as="geometry">
            <Array as="points">
              <mxPoint x="400" y="1120" />
              <mxPoint x="640" y="1120" />
            </Array>
          </mxGeometry>
        </mxCell>
        <mxCell id="R22fCnHGFZq9iobNYwOA-128" style="edgeStyle=orthogonalEdgeStyle;rounded=1;orthogonalLoop=1;jettySize=auto;html=1;exitX=0.5;exitY=0;exitDx=0;exitDy=0;entryX=0.5;entryY=0;entryDx=0;entryDy=0;curved=0;" edge="1" parent="1" source="R22fCnHGFZq9iobNYwOA-77" target="R22fCnHGFZq9iobNYwOA-92">
          <mxGeometry relative="1" as="geometry">
            <mxPoint x="700" y="980" as="targetPoint" />
          </mxGeometry>
        </mxCell>
        <mxCell id="R22fCnHGFZq9iobNYwOA-129" style="edgeStyle=orthogonalEdgeStyle;rounded=1;orthogonalLoop=1;jettySize=auto;html=1;exitX=0.5;exitY=0;exitDx=0;exitDy=0;entryX=0.5;entryY=0;entryDx=0;entryDy=0;curved=0;" edge="1" parent="1" source="R22fCnHGFZq9iobNYwOA-77" target="R22fCnHGFZq9iobNYwOA-97">
          <mxGeometry relative="1" as="geometry">
            <Array as="points">
              <mxPoint x="480" y="960" />
              <mxPoint x="800" y="960" />
            </Array>
          </mxGeometry>
        </mxCell>
        <mxCell id="R22fCnHGFZq9iobNYwOA-133" style="edgeStyle=orthogonalEdgeStyle;rounded=1;orthogonalLoop=1;jettySize=auto;html=1;exitX=0.75;exitY=1;exitDx=0;exitDy=0;entryX=0.5;entryY=1;entryDx=0;entryDy=0;curved=0;" edge="1" parent="1" source="R22fCnHGFZq9iobNYwOA-82" target="R22fCnHGFZq9iobNYwOA-102">
          <mxGeometry relative="1" as="geometry" />
        </mxCell>
        <mxCell id="R22fCnHGFZq9iobNYwOA-134" style="edgeStyle=orthogonalEdgeStyle;rounded=1;orthogonalLoop=1;jettySize=auto;html=1;exitX=0.75;exitY=1;exitDx=0;exitDy=0;entryX=0.51;entryY=1.004;entryDx=0;entryDy=0;entryPerimeter=0;curved=0;" edge="1" parent="1" source="R22fCnHGFZq9iobNYwOA-82" target="R22fCnHGFZq9iobNYwOA-106">
          <mxGeometry relative="1" as="geometry">
            <Array as="points">
              <mxPoint x="580" y="1110" />
              <mxPoint x="961" y="1110" />
            </Array>
          </mxGeometry>
        </mxCell>
        <mxCell id="R22fCnHGFZq9iobNYwOA-135" style="edgeStyle=orthogonalEdgeStyle;rounded=1;orthogonalLoop=1;jettySize=auto;html=1;exitX=0.5;exitY=0;exitDx=0;exitDy=0;entryX=0.5;entryY=0;entryDx=0;entryDy=0;curved=0;" edge="1" parent="1" source="R22fCnHGFZq9iobNYwOA-87" target="R22fCnHGFZq9iobNYwOA-112">
          <mxGeometry relative="1" as="geometry">
            <Array as="points">
              <mxPoint x="640" y="950" />
              <mxPoint x="1040" y="950" />
            </Array>
          </mxGeometry>
        </mxCell>
      </root>
    </mxGraphModel>
  </diagram>
</mxfile>
